<svg width="214" height="30" viewBox="0 0 214 30" fill="none" xmlns="http://www.w3.org/2000/svg">
<path d="M52.0234 20.8438C51.3906 21.6016 50.4961 22.1914 49.3398 22.6133C48.1836 23.0273 46.9023 23.2344 45.4961 23.2344C44.0195 23.2344 42.7227 22.9141 41.6055 22.2734C40.4961 21.625 39.6367 20.6875 39.0273 19.4609C38.4258 18.2344 38.1172 16.793 38.1016 15.1367V13.9766C38.1016 12.2734 38.3867 10.8008 38.957 9.55859C39.5352 8.30859 40.3633 7.35547 41.4414 6.69922C42.5273 6.03516 43.7969 5.70312 45.25 5.70312C47.2734 5.70312 48.8555 6.1875 49.9961 7.15625C51.1367 8.11719 51.8125 9.51953 52.0234 11.3633H48.6016C48.4453 10.3867 48.0977 9.67188 47.5586 9.21875C47.0273 8.76562 46.293 8.53906 45.3555 8.53906C44.1602 8.53906 43.25 8.98828 42.625 9.88672C42 10.7852 41.6836 12.1211 41.6758 13.8945V14.9844C41.6758 16.7734 42.0156 18.125 42.6953 19.0391C43.375 19.9531 44.3711 20.4102 45.6836 20.4102C47.0039 20.4102 47.9453 20.1289 48.5078 19.5664V16.625H45.3086V14.0352H52.0234V20.8438ZM58.2344 23H54.8359V5H58.2344V23ZM68.3828 23C68.2266 22.6953 68.1133 22.3164 68.043 21.8633C67.2227 22.7773 66.1562 23.2344 64.8438 23.2344C63.6016 23.2344 62.5703 22.875 61.75 22.1562C60.9375 21.4375 60.5312 20.5312 60.5312 19.4375C60.5312 18.0938 61.0273 17.0625 62.0195 16.3438C63.0195 15.625 64.4609 15.2617 66.3438 15.2539H67.9023V14.5273C67.9023 13.9414 67.75 13.4727 67.4453 13.1211C67.1484 12.7695 66.6758 12.5938 66.0273 12.5938C65.457 12.5938 65.0078 12.7305 64.6797 13.0039C64.3594 13.2773 64.1992 13.6523 64.1992 14.1289H60.8125C60.8125 13.3945 61.0391 12.7148 61.4922 12.0898C61.9453 11.4648 62.5859 10.9766 63.4141 10.625C64.2422 10.2656 65.1719 10.0859 66.2031 10.0859C67.7656 10.0859 69.0039 10.4805 69.918 11.2695C70.8398 12.0508 71.3008 13.1523 71.3008 14.5742V20.0703C71.3086 21.2734 71.4766 22.1836 71.8047 22.8008V23H68.3828ZM65.582 20.6445C66.082 20.6445 66.543 20.5352 66.9648 20.3164C67.3867 20.0898 67.6992 19.7891 67.9023 19.4141V17.2344H66.6367C64.9414 17.2344 64.0391 17.8203 63.9297 18.9922L63.918 19.1914C63.918 19.6133 64.0664 19.9609 64.3633 20.2344C64.6602 20.5078 65.0664 20.6445 65.582 20.6445ZM80.7695 19.4961C80.7695 19.082 80.5625 18.7578 80.1484 18.5234C79.7422 18.2812 79.0859 18.0664 78.1797 17.8789C75.1641 17.2461 73.6562 15.9648 73.6562 14.0352C73.6562 12.9102 74.1211 11.9727 75.0508 11.2227C75.9883 10.4648 77.2109 10.0859 78.7188 10.0859C80.3281 10.0859 81.6133 10.4648 82.5742 11.2227C83.543 11.9805 84.0273 12.9648 84.0273 14.1758H80.6406C80.6406 13.6914 80.4844 13.293 80.1719 12.9805C79.8594 12.6602 79.3711 12.5 78.707 12.5C78.1367 12.5 77.6953 12.6289 77.3828 12.8867C77.0703 13.1445 76.9141 13.4727 76.9141 13.8711C76.9141 14.2461 77.0898 14.5508 77.4414 14.7852C77.8008 15.0117 78.4023 15.2109 79.2461 15.3828C80.0898 15.5469 80.8008 15.7344 81.3789 15.9453C83.168 16.6016 84.0625 17.7383 84.0625 19.3555C84.0625 20.5117 83.5664 21.4492 82.5742 22.168C81.582 22.8789 80.3008 23.2344 78.7305 23.2344C77.668 23.2344 76.7227 23.0469 75.8945 22.6719C75.0742 22.2891 74.4297 21.7695 73.9609 21.1133C73.4922 20.4492 73.2578 19.7344 73.2578 18.9688H76.4688C76.5 19.5703 76.7227 20.0312 77.1367 20.3516C77.5508 20.6719 78.1055 20.832 78.8008 20.832C79.4492 20.832 79.9375 20.7109 80.2656 20.4688C80.6016 20.2188 80.7695 19.8945 80.7695 19.4961ZM93.1211 19.4961C93.1211 19.082 92.9141 18.7578 92.5 18.5234C92.0938 18.2812 91.4375 18.0664 90.5312 17.8789C87.5156 17.2461 86.0078 15.9648 86.0078 14.0352C86.0078 12.9102 86.4727 11.9727 87.4023 11.2227C88.3398 10.4648 89.5625 10.0859 91.0703 10.0859C92.6797 10.0859 93.9648 10.4648 94.9258 11.2227C95.8945 11.9805 96.3789 12.9648 96.3789 14.1758H92.9922C92.9922 13.6914 92.8359 13.293 92.5234 12.9805C92.2109 12.6602 91.7227 12.5 91.0586 12.5C90.4883 12.5 90.0469 12.6289 89.7344 12.8867C89.4219 13.1445 89.2656 13.4727 89.2656 13.8711C89.2656 14.2461 89.4414 14.5508 89.793 14.7852C90.1523 15.0117 90.7539 15.2109 91.5977 15.3828C92.4414 15.5469 93.1523 15.7344 93.7305 15.9453C95.5195 16.6016 96.4141 17.7383 96.4141 19.3555C96.4141 20.5117 95.918 21.4492 94.9258 22.168C93.9336 22.8789 92.6523 23.2344 91.082 23.2344C90.0195 23.2344 89.0742 23.0469 88.2461 22.6719C87.4258 22.2891 86.7812 21.7695 86.3125 21.1133C85.8438 20.4492 85.6094 19.7344 85.6094 18.9688H88.8203C88.8516 19.5703 89.0742 20.0312 89.4883 20.3516C89.9023 20.6719 90.457 20.832 91.1523 20.832C91.8008 20.832 92.2891 20.7109 92.6172 20.4688C92.9531 20.2188 93.1211 19.8945 93.1211 19.4961ZM109.398 5.9375L113.781 18.3125L118.141 5.9375H122.758V23H119.23V18.3359L119.582 10.2852L114.977 23H112.562L107.969 10.2969L108.32 18.3359V23H104.805V5.9375H109.398ZM125.078 16.543C125.078 15.2852 125.32 14.1641 125.805 13.1797C126.289 12.1953 126.984 11.4336 127.891 10.8945C128.805 10.3555 129.863 10.0859 131.066 10.0859C132.777 10.0859 134.172 10.6094 135.25 11.6562C136.336 12.7031 136.941 14.125 137.066 15.9219L137.09 16.7891C137.09 18.7344 136.547 20.2969 135.461 21.4766C134.375 22.6484 132.918 23.2344 131.09 23.2344C129.262 23.2344 127.801 22.6484 126.707 21.4766C125.621 20.3047 125.078 18.7109 125.078 16.6953V16.543ZM128.465 16.7891C128.465 17.9922 128.691 18.9141 129.145 19.5547C129.598 20.1875 130.246 20.5039 131.09 20.5039C131.91 20.5039 132.551 20.1914 133.012 19.5664C133.473 18.9336 133.703 17.9258 133.703 16.543C133.703 15.3633 133.473 14.4492 133.012 13.8008C132.551 13.1523 131.902 12.8281 131.066 12.8281C130.238 12.8281 129.598 13.1523 129.145 13.8008C128.691 14.4414 128.465 15.4375 128.465 16.7891ZM146.301 13.4961C145.84 13.4336 145.434 13.4023 145.082 13.4023C143.801 13.4023 142.961 13.8359 142.562 14.7031V23H139.176V10.3203H142.375L142.469 11.832C143.148 10.668 144.09 10.0859 145.293 10.0859C145.668 10.0859 146.02 10.1367 146.348 10.2383L146.301 13.4961ZM159.355 16.7773C159.355 18.7305 158.91 20.2969 158.02 21.4766C157.137 22.6484 155.941 23.2344 154.434 23.2344C153.152 23.2344 152.117 22.7891 151.328 21.8984V27.875H147.941V10.3203H151.082L151.199 11.5625C152.02 10.5781 153.09 10.0859 154.41 10.0859C155.973 10.0859 157.188 10.6641 158.055 11.8203C158.922 12.9766 159.355 14.5703 159.355 16.6016V16.7773ZM155.969 16.5312C155.969 15.3516 155.758 14.4414 155.336 13.8008C154.922 13.1602 154.316 12.8398 153.52 12.8398C152.457 12.8398 151.727 13.2461 151.328 14.0586V19.25C151.742 20.0859 152.48 20.5039 153.543 20.5039C155.16 20.5039 155.969 19.1797 155.969 16.5312ZM164.77 11.7031C165.668 10.625 166.797 10.0859 168.156 10.0859C170.906 10.0859 172.301 11.6836 172.34 14.8789V23H168.953V14.9727C168.953 14.2461 168.797 13.7109 168.484 13.3672C168.172 13.0156 167.652 12.8398 166.926 12.8398C165.934 12.8398 165.215 13.2227 164.77 13.9883V23H161.383V5H164.77V11.7031ZM178.469 23H175.07V10.3203H178.469V23ZM174.871 7.03906C174.871 6.53125 175.039 6.11328 175.375 5.78516C175.719 5.45703 176.184 5.29297 176.77 5.29297C177.348 5.29297 177.809 5.45703 178.152 5.78516C178.496 6.11328 178.668 6.53125 178.668 7.03906C178.668 7.55469 178.492 7.97656 178.141 8.30469C177.797 8.63281 177.34 8.79688 176.77 8.79688C176.199 8.79688 175.738 8.63281 175.387 8.30469C175.043 7.97656 174.871 7.55469 174.871 7.03906ZM188.137 19.4961C188.137 19.082 187.93 18.7578 187.516 18.5234C187.109 18.2812 186.453 18.0664 185.547 17.8789C182.531 17.2461 181.023 15.9648 181.023 14.0352C181.023 12.9102 181.488 11.9727 182.418 11.2227C183.355 10.4648 184.578 10.0859 186.086 10.0859C187.695 10.0859 188.98 10.4648 189.941 11.2227C190.91 11.9805 191.395 12.9648 191.395 14.1758H188.008C188.008 13.6914 187.852 13.293 187.539 12.9805C187.227 12.6602 186.738 12.5 186.074 12.5C185.504 12.5 185.062 12.6289 184.75 12.8867C184.438 13.1445 184.281 13.4727 184.281 13.8711C184.281 14.2461 184.457 14.5508 184.809 14.7852C185.168 15.0117 185.77 15.2109 186.613 15.3828C187.457 15.5469 188.168 15.7344 188.746 15.9453C190.535 16.6016 191.43 17.7383 191.43 19.3555C191.43 20.5117 190.934 21.4492 189.941 22.168C188.949 22.8789 187.668 23.2344 186.098 23.2344C185.035 23.2344 184.09 23.0469 183.262 22.6719C182.441 22.2891 181.797 21.7695 181.328 21.1133C180.859 20.4492 180.625 19.7344 180.625 18.9688H183.836C183.867 19.5703 184.09 20.0312 184.504 20.3516C184.918 20.6719 185.473 20.832 186.168 20.832C186.816 20.832 187.305 20.7109 187.633 20.4688C187.969 20.2188 188.137 19.8945 188.137 19.4961ZM196.797 10.3203L196.902 11.7383C197.801 10.6367 199.016 10.0859 200.547 10.0859C202.18 10.0859 203.301 10.7305 203.91 12.0195C204.801 10.7305 206.07 10.0859 207.719 10.0859C209.094 10.0859 210.117 10.4883 210.789 11.293C211.461 12.0898 211.797 13.293 211.797 14.9023V23H208.398V14.9141C208.398 14.1953 208.258 13.6719 207.977 13.3438C207.695 13.0078 207.199 12.8398 206.488 12.8398C205.473 12.8398 204.77 13.3242 204.379 14.293L204.391 23H201.004V14.9258C201.004 14.1914 200.859 13.6602 200.57 13.332C200.281 13.0039 199.789 12.8398 199.094 12.8398C198.133 12.8398 197.438 13.2383 197.008 14.0352V23H193.621V10.3203H196.797Z" fill="white"/>
<rect x="1.5" y="1.5" width="27" height="27" stroke="white" stroke-width="3"/>
<line x1="6.93934" y1="11.0482" x2="12.0482" y2="5.93935" stroke="white" stroke-width="3"/>
<line x1="7.93934" y1="17.8948" x2="18.8948" y2="6.93934" stroke="white" stroke-width="3"/>
</svg>
